PathFileType	4	(X/Y/Z)	 C:\Users\z3550257\Dropbox\University\GitHubClones\TheiaOpensim\ExampleData\P01_procesed_with_single_calib\C3D_data\jump_0_Theia.trc
DataRate	CameraRate	NumFrames	NumMarkers	Units	OrigDataRate	OrigDataStartFrame	OrigNumFrames
100	100	10	40	m	100	932	2485
Frame#	Time	PELVIS1			LHIP			LKNEE			LANK			LMTP			RHIP			RKNEE			RANK			RMTP			CVJ			TORSO			LSHO			LELB			LWRIST			RSHO			RELB			RWRIST			LCALC			RCALC			LTOE			RTOE			LHAND			RHAND			HEAD_CENTRE			TORSO_LOW			LTHI			RTHI			LSHA			RSHA			L_LCALC			R_LCALC			LUA			RUA			LFRM			RFRM			HEAD_L			HEAD_R			TORSO_L			TORSO_R			PELVIS2			
		X1	Y1	Z1	X2	Y2	Z2	X3	Y3	Z3	X4	Y4	Z4	X5	Y5	Z5	X6	Y6	Z6	X7	Y7	Z7	X8	Y8	Z8	X9	Y9	Z9	X10	Y10	Z10	X11	Y11	Z11	X12	Y12	Z12	X13	Y13	Z13	X14	Y14	Z14	X15	Y15	Z15	X16	Y16	Z16	X17	Y17	Z17	X18	Y18	Z18	X19	Y19	Z19	X20	Y20	Z20	X21	Y21	Z21	X22	Y22	Z22	X23	Y23	Z23	X24	Y24	Z24	X25	Y25	Z25	X26	Y26	Z26	X27	Y27	Z27	X28	Y28	Z28	X29	Y29	Z29	X30	Y30	Z30	X31	Y31	Z31	X32	Y32	Z32	X33	Y33	Z33	X34	Y34	Z34	X35	Y35	Z35	X36	Y36	Z36	X37	Y37	Z37	X38	Y38	Z38	X39	Y39	Z39	X40	Y40	Z40	
932	9.3200	0.327215	0.933146	-0.122662	0.310349	0.837276	-0.208828	0.440981	0.471367	-0.268167	0.317343	0.093562	-0.276779	0.461182	0.022734	-0.299433	0.340009	0.843672	-0.029227	0.458100	0.475820	0.035167	0.319705	0.101222	0.047890	0.459422	0.023341	0.061759	0.526527	1.500196	-0.224734	0.534004	1.413708	-0.214427	0.450483	1.335190	-0.361701	0.252254	1.157122	-0.516872	0.309275	0.965502	-0.352872	0.533457	1.356442	-0.036360	0.428700	1.213933	0.216733	0.396121	0.984519	0.098978	0.258096	0.027687	-0.266637	0.256556	0.038345	0.039492	0.510835	0.022187	-0.307524	0.509247	0.021589	0.067303	0.333875	0.925348	-0.300876	0.401206	0.937094	0.048732	0.565038	1.530081	-0.231416	0.452906	1.175516	-0.175984	0.356778	0.655853	-0.311149	0.393969	0.666901	0.077560	0.362521	0.288021	-0.335075	0.381649	0.293248	0.105947	0.300068	0.042038	-0.312327	0.301224	0.051687	0.085282	0.368500	1.223927	-0.407443	0.482008	1.257850	0.057630	0.292841	1.094756	-0.414726	0.421384	1.125039	0.127050	0.488101	1.619570	-0.299040	0.506036	1.623764	-0.150174	0.501832	1.401109	-0.360394	0.566176	1.426306	-0.068460	0.325179	0.840474	-0.119028	
933	9.3300	0.321682	0.914994	-0.121742	0.304397	0.819436	-0.208177	0.456388	0.462785	-0.271254	0.315044	0.090531	-0.275265	0.461063	0.023097	-0.299526	0.334033	0.825201	-0.028550	0.471830	0.464407	0.035638	0.314939	0.096312	0.045575	0.458452	0.023938	0.061192	0.530320	1.475348	-0.225768	0.537418	1.389672	-0.215312	0.452501	1.309785	-0.361457	0.250494	1.133353	-0.513544	0.305459	0.939289	-0.351707	0.535275	1.331711	-0.037649	0.428191	1.190257	0.215070	0.391368	0.959784	0.100842	0.257213	0.022844	-0.265315	0.254061	0.030429	0.037875	0.510769	0.024136	-0.307922	0.508658	0.025158	0.066992	0.329677	0.899324	-0.299386	0.395429	0.912182	0.050672	0.568667	1.505448	-0.232429	0.451267	1.153510	-0.175646	0.361958	0.642642	-0.312470	0.398647	0.652136	0.078158	0.369371	0.282163	-0.335938	0.386325	0.284924	0.105056	0.298782	0.038736	-0.311165	0.298318	0.046342	0.083654	0.368851	1.199238	-0.405845	0.482371	1.233688	0.056120	0.288457	1.069590	-0.411249	0.418323	1.100395	0.126656	0.491311	1.594402	-0.300298	0.508992	1.598893	-0.151406	0.505172	1.376930	-0.361251	0.569664	1.402414	-0.069373	0.319215	0.822318	-0.118364	
934	9.3400	0.316264	0.898678	-0.120737	0.299064	0.803320	-0.207406	0.472040	0.456977	-0.274275	0.316014	0.090406	-0.274505	0.461942	0.023092	-0.299710	0.328334	0.808673	-0.027707	0.485864	0.455869	0.035341	0.313552	0.094282	0.043896	0.458576	0.024373	0.060880	0.534003	1.452171	-0.226621	0.540864	1.367445	-0.216137	0.454555	1.286482	-0.361662	0.248973	1.111438	-0.510562	0.301647	0.915379	-0.350312	0.536925	1.309048	-0.038679	0.427950	1.168339	0.213652	0.385774	0.937356	0.102516	0.258240	0.022661	-0.264578	0.253714	0.027119	0.036539	0.511412	0.024648	-0.308283	0.508763	0.027337	0.066884	0.326015	0.875745	-0.297829	0.388839	0.889802	0.052208	0.572219	1.482460	-0.233189	0.449414	1.133523	-0.175265	0.367832	0.631930	-0.313744	0.403772	0.639750	0.078458	0.378070	0.279089	-0.337173	0.393029	0.279579	0.104110	0.299611	0.038796	-0.310551	0.297628	0.044296	0.082379	0.369284	1.176593	-0.404569	0.482589	1.211533	0.054793	0.284474	1.046524	-0.408056	0.415001	1.077828	0.126344	0.494606	1.571002	-0.301318	0.511848	1.575646	-0.152378	0.508629	1.354554	-0.362065	0.573100	1.380336	-0.070209	0.313699	0.805996	-0.117557	
935	9.3500	0.311203	0.884070	-0.119678	0.294588	0.788793	-0.206537	0.486859	0.453112	-0.277223	0.318927	0.092047	-0.274407	0.463308	0.022564	-0.299895	0.323178	0.793968	-0.026726	0.499511	0.449700	0.034517	0.314756	0.094322	0.042865	0.459426	0.024208	0.060814	0.537414	1.430803	-0.227294	0.544141	1.347151	-0.216857	0.456448	1.265511	-0.362229	0.247738	1.091739	-0.508340	0.298052	0.894394	-0.348846	0.538354	1.288610	-0.039392	0.428016	1.148557	0.212710	0.379648	0.917680	0.104015	0.260238	0.025420	-0.264408	0.254852	0.027321	0.035550	0.512450	0.024004	-0.308528	0.509372	0.027939	0.066978	0.323079	0.855258	-0.296329	0.381920	0.870381	0.053392	0.575562	1.461214	-0.233698	0.447391	1.115580	-0.174832	0.373938	0.623271	-0.314968	0.409040	0.629451	0.078561	0.387376	0.277833	-0.338720	0.400949	0.276541	0.103228	0.301631	0.040878	-0.310445	0.298551	0.044625	0.081505	0.369670	1.156259	-0.403771	0.482663	1.191620	0.053825	0.281254	1.026067	-0.405578	0.411653	1.057774	0.126273	0.497960	1.549510	-0.302166	0.514544	1.554213	-0.153154	0.512010	1.334091	-0.362793	0.576273	1.360211	-0.070921	0.308883	0.791381	-0.116632	
936	9.3600	0.306686	0.871023	-0.118630	0.291020	0.775732	-0.205638	0.499849	0.450314	-0.280086	0.322345	0.094310	-0.274774	0.464658	0.021665	-0.300021	0.318720	0.780915	-0.025691	0.512070	0.445256	0.033508	0.317429	0.095547	0.042353	0.460579	0.023414	0.060939	0.540414	1.411393	-0.227796	0.547058	1.328879	-0.217435	0.458041	1.247011	-0.363015	0.246858	1.074493	-0.507156	0.294918	0.876680	-0.347508	0.539512	1.270468	-0.039749	0.428345	1.131184	0.212406	0.373446	0.900976	0.105394	0.262305	0.029276	-0.264679	0.256689	0.029633	0.034872	0.513525	0.022783	-0.308620	0.510224	0.027297	0.067239	0.320919	0.838193	-0.295000	0.375237	0.854074	0.054351	0.578575	1.441833	-0.233978	0.445287	1.099638	-0.174359	0.379685	0.616119	-0.316142	0.414066	0.620857	0.078588	0.396001	0.277410	-0.340453	0.409067	0.275016	0.102511	0.303889	0.043628	-0.310714	0.300303	0.046297	0.080974	0.369946	1.138398	-0.403519	0.482597	1.174080	0.053351	0.279047	1.008526	-0.404107	0.408492	1.040502	0.126572	0.501312	1.530053	-0.302920	0.517005	1.534802	-0.153817	0.515131	1.315620	-0.363396	0.578986	1.342138	-0.071473	0.304870	0.778324	-0.115665	
937	9.3700	0.302817	0.859418	-0.117670	0.288244	0.764069	-0.204805	0.510304	0.447866	-0.282849	0.325116	0.096284	-0.275388	0.465625	0.020686	-0.300057	0.315000	0.769345	-0.024716	0.522947	0.441896	0.032672	0.320451	0.097151	0.042150	0.461670	0.022221	0.061178	0.542902	1.394099	-0.228144	0.549480	1.312695	-0.217852	0.459292	1.231023	-0.363859	0.246401	1.059787	-0.507081	0.292443	0.862264	-0.346473	0.540358	1.254634	-0.039751	0.428805	1.116350	0.212771	0.367652	0.887211	0.106710	0.263798	0.032702	-0.265221	0.258531	0.032676	0.034399	0.514342	0.021581	-0.308560	0.511062	0.026009	0.067607	0.319414	0.824510	-0.293908	0.369276	0.840759	0.055229	0.581160	1.424467	-0.234066	0.443224	1.085624	-0.173869	0.384500	0.609972	-0.317275	0.418465	0.613586	0.078657	0.402932	0.277032	-0.342234	0.416415	0.274246	0.102022	0.305658	0.045971	-0.311200	0.302155	0.048367	0.080661	0.370121	1.123052	-0.403783	0.482395	1.158939	0.053419	0.277935	0.993962	-0.403723	0.405659	1.026074	0.127286	0.504574	1.512757	-0.303650	0.519164	1.517612	-0.154444	0.517857	1.299204	-0.363857	0.581103	1.326187	-0.071846	0.301622	0.766707	-0.114761	
938	9.3800	0.299618	0.849191	-0.116873	0.286047	0.753794	-0.204130	0.517940	0.445344	-0.285508	0.326598	0.097437	-0.276068	0.466042	0.019902	-0.300002	0.311958	0.759144	-0.023916	0.531755	0.439103	0.032293	0.322967	0.098533	0.042044	0.462453	0.020957	0.061450	0.544837	1.379071	-0.228365	0.551348	1.298647	-0.218103	0.460247	1.217493	-0.364625	0.246414	1.047541	-0.507981	0.290715	0.850885	-0.345834	0.540873	1.241072	-0.039434	0.429207	1.104025	0.213701	0.362656	0.876130	0.107984	0.264427	0.034777	-0.265877	0.259916	0.035366	0.034014	0.514738	0.020811	-0.308371	0.511689	0.024679	0.068009	0.318313	0.813839	-0.293066	0.364335	0.830102	0.056115	0.583265	1.409275	-0.234008	0.441329	1.073473	-0.173393	0.387970	0.604470	-0.318383	0.421934	0.607336	0.078851	0.407640	0.276245	-0.343951	0.422286	0.273639	0.101793	0.306566	0.047288	-0.311761	0.303585	0.050133	0.080431	0.370270	1.110147	-0.404450	0.482054	1.146137	0.053978	0.277810	0.982199	-0.404289	0.403208	1.014348	0.128353	0.507640	1.497737	-0.304395	0.520969	1.502804	-0.155082	0.520118	1.284898	-0.364168	0.582578	1.312397	-0.072037	0.299002	0.756469	-0.114023	
939	9.3900	0.297031	0.840332	-0.116287	0.284193	0.744942	-0.203679	0.522906	0.442644	-0.288070	0.326693	0.097641	-0.276694	0.465933	0.019478	-0.299873	0.309473	0.750260	-0.023369	0.538367	0.436556	0.032524	0.324514	0.099355	0.041887	0.462832	0.019905	0.061688	0.546236	1.366408	-0.228487	0.552686	1.286755	-0.218185	0.461013	1.206286	-0.365221	0.246921	1.037540	-0.509578	0.289694	0.842084	-0.345590	0.541056	1.229712	-0.038865	0.429342	1.094030	0.214982	0.358676	0.867324	0.109179	0.264232	0.035252	-0.266521	0.260650	0.037072	0.033634	0.514699	0.020625	-0.308094	0.512005	0.023741	0.068380	0.317340	0.805599	-0.292441	0.360476	0.821645	0.057007	0.584880	1.396384	-0.233854	0.439697	1.063133	-0.172956	0.389938	0.599443	-0.319485	0.424315	0.601918	0.079210	0.410116	0.274941	-0.345538	0.426346	0.272849	0.101824	0.306591	0.047443	-0.312294	0.304346	0.051209	0.080190	0.370495	1.099514	-0.405352	0.481560	1.135535	0.054889	0.278434	0.972882	-0.405519	0.401116	1.005007	0.129621	0.510397	1.485071	-0.305156	0.522386	1.490457	-0.155743	0.521921	1.272741	-0.364323	0.583451	1.300770	-0.072047	0.296833	0.747601	-0.113524	
940	9.4000	0.294948	0.832856	-0.115931	0.282504	0.737544	-0.203476	0.525681	0.439907	-0.290553	0.325723	0.097089	-0.277209	0.465460	0.019448	-0.299701	0.307402	0.742693	-0.023105	0.542905	0.434133	0.033363	0.325011	0.099538	0.041628	0.462837	0.019235	0.061856	0.547161	1.356128	-0.228539	0.553568	1.276999	-0.218089	0.461708	1.197211	-0.365600	0.247915	1.029483	-0.511531	0.289229	0.835315	-0.345652	0.540916	1.220449	-0.038121	0.429029	1.086074	0.216353	0.355728	0.860322	0.110207	0.263474	0.034418	-0.267071	0.260768	0.037615	0.033236	0.514336	0.020950	-0.307776	0.512008	0.023390	0.068673	0.316288	0.799158	-0.291983	0.357566	0.814911	0.057812	0.586035	1.385853	-0.233645	0.438373	1.054564	-0.172564	0.390516	0.594895	-0.320602	0.425606	0.597256	0.079721	0.410764	0.273283	-0.346975	0.428624	0.271770	0.102090	0.305967	0.046675	-0.312736	0.304442	0.051510	0.079904	0.370890	1.090924	-0.406305	0.480890	1.126942	0.055972	0.279523	0.965567	-0.407063	0.399324	0.997632	0.130884	0.512747	1.474768	-0.305896	0.523408	1.480544	-0.156396	0.523319	1.262742	-0.364311	0.583817	1.291256	-0.071867	0.294953	0.740118	-0.113291	
941	9.4100	0.293240	0.826776	-0.115800	0.280892	0.731604	-0.203514	0.526911	0.437398	-0.292971	0.324211	0.096140	-0.277595	0.464839	0.019741	-0.299519	0.305619	0.736462	-0.023111	0.545670	0.431873	0.034675	0.324653	0.099196	0.041297	0.462579	0.018999	0.061948	0.547696	1.348164	-0.228535	0.554087	1.269311	-0.217799	0.462422	1.190066	-0.365748	0.249358	1.023042	-0.513517	0.289112	0.830060	-0.345884	0.540466	1.213148	-0.037270	0.428154	1.079810	0.217574	0.353656	0.854682	0.110964	0.262497	0.032858	-0.267480	0.260446	0.037168	0.032849	0.513818	0.021586	-0.307467	0.511771	0.023597	0.068871	0.315081	0.793967	-0.291644	0.355351	0.809488	0.058393	0.586783	1.377650	-0.233405	0.437344	1.047717	-0.172210	0.390028	0.590939	-0.321749	0.425942	0.593348	0.080329	0.410210	0.271567	-0.348273	0.429422	0.270486	0.102541	0.305040	0.045423	-0.313059	0.304042	0.051169	0.079597	0.371514	1.084132	-0.407145	0.480018	1.120136	0.057048	0.280827	0.959808	-0.408601	0.397751	0.991788	0.131946	0.514615	1.466766	-0.306547	0.524048	1.472939	-0.156976	0.524388	1.254863	-0.364116	0.583786	1.283759	-0.071482	0.293255	0.734033	-0.113313	
